<svg xmlns="http://www.w3.org/2000/svg" viewBox="0 0 100 100" fill="none">
  <circle cx="50" cy="50" r="48" fill="#0F1B2F" stroke="#00F2FE" stroke-width="3" stroke-opacity="0.6"/>
  <!-- Spiral vortex arms -->
  <path d="M 50 15 C 72 15 88 32 86 54 C 84 72 68 85 50 85 C 38 85 24 76 22 62 C 20 48 32 36 44 36 C 54 36 62 44 60 52 C 58 58 52 62 48 60 C 44 58 44 52 48 50" 
        stroke="#00F2FE" stroke-width="4" stroke-linecap="round" stroke-linejoin="round"/>
  <!-- Counter arm -->
  <path d="M 50 85 C 28 85 12 68 14 46 C 16 28 32 15 50 15 C 62 15 76 24 78 38 C 80 52 68 64 56 64 C 46 64 38 56 40 48 C 42 42 48 38 52 40" 
        stroke="#38BDF8" stroke-width="3" stroke-linecap="round" stroke-dasharray="2 3" stroke-opacity="0.8"/>
  <!-- Central eye core -->
  <circle cx="50" cy="50" r="7" fill="#00F2FE"/>
  <circle cx="50" cy="50" r="14" stroke="#FF5E36" stroke-width="2" stroke-dasharray="3 3"/>
  <circle cx="50" cy="50" r="3" fill="#FFFFFF"/>
</svg>
